# xmcd
#
# Track frame offsets: 
#        150
#        42786
#        76611
#        109294
#        144223
#        169240
#        204460
#        244458
#        293810
#        321285
#
# Disc length: 4788 seconds
#
# Revision: 0
# Processed by: cddbd v1.5.2PL0 Copyright (c) Steve Scherf et al.
# Submitted via: ExactAudioCopy v1.3
#
DISCID=8912b20a
DTITLE=Various Artist - Blues - Golden Age '60s -'70s  vol.09  CD2
DYEAR=2018
DGENRE=Rock
TTITLE0=The John Dummer Band - 1970 - Me And The Lady
TTITLE1=Pacific Gas and Electric - 1968 - Jelly, Jelly
TTITLE2=The Rolling Stones - 1971 - Can't You Hear Me Knocking
TTITLE3=Chain - 1970 - Booze Is Bad News Blues
TTITLE4=Johnny Winter - 1969 - Memory Pain
TTITLE5=Jimi Hendrix - 1968 - Once I Had A Woman
TTITLE6=Humble Pie - 1972 - I Wonder
TTITLE7=Rare Earth - 1970 - (I Know) I'm Losing You
TTITLE8=Peter Green - 1977 - Just Another Guy
TTITLE9=Livin' Blues - 1976 - Blue Breeze
EXTD=
EXTT0=
EXTT1=
EXTT2=
EXTT3=
EXTT4=
EXTT5=
EXTT6=
EXTT7=
EXTT8=
EXTT9=
PLAYORDER=
